<svg width="190" height="42" viewBox="0 0 190 42" fill="none" xmlns="http://www.w3.org/2000/svg">
<path d="M4.81856 4.468C4.81856 5.15867 4.98656 5.77467 5.32256 6.316C5.67723 6.83867 6.10656 7.296 6.61056 7.688C7.13323 8.08 7.83323 8.54667 8.71056 9.088C9.66256 9.68533 10.4092 10.1987 10.9506 10.628C11.5106 11.0573 11.9772 11.5893 12.3506 12.224C12.7426 12.84 12.9386 13.568 12.9386 14.408C12.9386 15.36 12.6866 16.2093 12.1826 16.956C11.6972 17.7027 10.9972 18.2907 10.0826 18.72C9.18656 19.1307 8.1599 19.336 7.00256 19.336C6.21856 19.336 5.40656 19.2333 4.56656 19.028C3.74523 18.8227 3.1199 18.5707 2.69056 18.272C2.52256 18.16 2.42923 17.9827 2.41056 17.74L2.24256 13.484V13.456C2.24256 13.3813 2.28923 13.344 2.38256 13.344C2.4759 13.3253 2.5319 13.3533 2.55056 13.428C3.16656 14.9773 3.86656 16.2467 4.65056 17.236C5.45323 18.2253 6.47056 18.72 7.70256 18.72C8.50523 18.72 9.17723 18.5053 9.71856 18.076C10.2599 17.628 10.5306 16.8907 10.5306 15.864C10.5306 15.0427 10.3439 14.324 9.97056 13.708C9.6159 13.092 9.1679 12.5787 8.62656 12.168C8.1039 11.7573 7.38523 11.2533 6.47056 10.656C5.57456 10.0773 4.87456 9.592 4.37056 9.2C3.86656 8.78933 3.43723 8.29467 3.08256 7.716C2.7279 7.11867 2.55056 6.428 2.55056 5.644C2.55056 4.67333 2.82123 3.852 3.36256 3.18C3.9039 2.508 4.6039 2.01333 5.46256 1.696C6.3399 1.36 7.25456 1.192 8.20656 1.192C8.84123 1.192 9.4759 1.25733 10.1106 1.388C10.7452 1.5 11.2772 1.64933 11.7066 1.836C11.9866 1.948 12.1266 2.12533 12.1266 2.368L12.2106 6.176C12.2106 6.232 12.1546 6.26933 12.0426 6.288C11.9492 6.30667 11.8932 6.288 11.8746 6.232C11.5012 5.09333 10.9972 4.06667 10.3626 3.152C9.74656 2.21867 8.81323 1.752 7.56256 1.752C6.72256 1.752 6.05056 1.99467 5.54656 2.48C5.06123 2.96533 4.81856 3.628 4.81856 4.468ZM40.262 1.5C40.2993 1.5 40.318 1.556 40.318 1.668C40.318 1.78 40.2993 1.836 40.262 1.836C39.59 1.836 38.974 2.088 38.414 2.592C37.854 3.096 37.3873 3.824 37.014 4.776L31.582 18.972C31.5633 19.0467 31.4606 19.084 31.274 19.084C31.0873 19.084 30.9846 19.0467 30.966 18.972L27.354 11.244L24.414 18.972C24.3953 19.0467 24.2926 19.084 24.106 19.084C23.9193 19.084 23.8166 19.0467 23.798 18.972L16.714 3.824C16.322 3.00267 15.986 2.47067 15.706 2.228C15.4446 1.96667 15.0433 1.836 14.502 1.836C14.446 1.836 14.418 1.78 14.418 1.668C14.418 1.556 14.446 1.5 14.502 1.5L15.23 1.528C15.6406 1.56533 16.1073 1.584 16.63 1.584C17.6753 1.584 18.6273 1.56533 19.486 1.528C19.7473 1.50933 20.074 1.5 20.466 1.5C20.522 1.5 20.55 1.556 20.55 1.668C20.55 1.78 20.522 1.836 20.466 1.836C19.962 1.836 19.598 1.892 19.374 2.004C19.1686 2.09733 19.066 2.284 19.066 2.564C19.066 2.88133 19.234 3.404 19.57 4.132L24.918 15.528L26.934 10.32L23.882 3.824C23.546 3.13333 23.2286 2.62933 22.93 2.312C22.65 1.99467 22.314 1.836 21.922 1.836C21.866 1.836 21.838 1.78 21.838 1.668C21.838 1.556 21.866 1.5 21.922 1.5L22.594 1.528C23.0046 1.56533 23.4153 1.584 23.826 1.584C24.7033 1.584 25.478 1.56533 26.15 1.528C26.3366 1.50933 26.5793 1.5 26.878 1.5C26.934 1.5 26.962 1.556 26.962 1.668C26.962 1.78 26.934 1.836 26.878 1.836C26.5793 1.836 26.3646 1.87333 26.234 1.948C26.122 2.004 26.066 2.116 26.066 2.284C26.066 2.58267 26.29 3.19867 26.738 4.132L28.25 7.324L29.258 4.664C29.594 3.78667 29.762 3.124 29.762 2.676C29.762 2.116 29.482 1.836 28.922 1.836C28.866 1.836 28.838 1.78 28.838 1.668C28.838 1.556 28.866 1.5 28.922 1.5C29.09 1.5 29.286 1.51867 29.51 1.556C29.734 1.57467 30.1446 1.584 30.742 1.584C31.078 1.584 31.47 1.56533 31.918 1.528L33.01 1.5C33.0473 1.5 33.066 1.556 33.066 1.668C33.066 1.78 33.0473 1.836 33.01 1.836C32.3753 1.836 31.8153 2.06933 31.33 2.536C30.8446 3.00267 30.406 3.74933 30.014 4.776L28.67 8.248L32.114 15.528L36.202 4.86C36.3886 4.37467 36.482 3.91733 36.482 3.488C36.482 2.96533 36.3233 2.564 36.006 2.284C35.7073 1.98533 35.278 1.836 34.718 1.836C34.662 1.836 34.634 1.78 34.634 1.668C34.634 1.556 34.662 1.5 34.718 1.5L35.95 1.528C36.622 1.56533 37.2286 1.584 37.77 1.584C38.1433 1.584 38.5726 1.56533 39.058 1.528L40.262 1.5ZM46.2251 16.732C46.2251 17.3107 46.2718 17.7307 46.3651 17.992C46.4584 18.2533 46.6451 18.4307 46.9251 18.524C47.2238 18.6173 47.6904 18.664 48.3251 18.664C48.3811 18.664 48.4091 18.72 48.4091 18.832C48.4091 18.944 48.3811 19 48.3251 19C47.7278 19 47.2518 18.9907 46.8971 18.972L44.8251 18.944L42.8091 18.972C42.4544 18.9907 41.9691 19 41.3531 19C41.2971 19 41.2691 18.944 41.2691 18.832C41.2691 18.72 41.2971 18.664 41.3531 18.664C41.9878 18.664 42.4451 18.6173 42.7251 18.524C43.0238 18.4307 43.2291 18.2533 43.3411 17.992C43.4531 17.712 43.5091 17.292 43.5091 16.732V3.768C43.5091 3.208 43.4531 2.79733 43.3411 2.536C43.2291 2.27467 43.0238 2.09733 42.7251 2.004C42.4451 1.892 41.9878 1.836 41.3531 1.836C41.2971 1.836 41.2691 1.78 41.2691 1.668C41.2691 1.556 41.2971 1.5 41.3531 1.5L42.8091 1.528C43.6304 1.56533 44.3024 1.584 44.8251 1.584C45.4038 1.584 46.1038 1.56533 46.9251 1.528L48.3251 1.5C48.3811 1.5 48.4091 1.556 48.4091 1.668C48.4091 1.78 48.3811 1.836 48.3251 1.836C47.7091 1.836 47.2518 1.892 46.9531 2.004C46.6731 2.116 46.4771 2.312 46.3651 2.592C46.2718 2.85333 46.2251 3.264 46.2251 3.824V16.732ZM54.2014 4.468C54.2014 5.15867 54.3694 5.77467 54.7054 6.316C55.06 6.83867 55.4894 7.296 55.9934 7.688C56.516 8.08 57.216 8.54667 58.0934 9.088C59.0454 9.68533 59.792 10.1987 60.3334 10.628C60.8934 11.0573 61.36 11.5893 61.7334 12.224C62.1254 12.84 62.3214 13.568 62.3214 14.408C62.3214 15.36 62.0694 16.2093 61.5654 16.956C61.08 17.7027 60.38 18.2907 59.4654 18.72C58.5694 19.1307 57.5427 19.336 56.3854 19.336C55.6014 19.336 54.7894 19.2333 53.9494 19.028C53.128 18.8227 52.5027 18.5707 52.0734 18.272C51.9054 18.16 51.812 17.9827 51.7934 17.74L51.6254 13.484V13.456C51.6254 13.3813 51.672 13.344 51.7654 13.344C51.8587 13.3253 51.9147 13.3533 51.9334 13.428C52.5494 14.9773 53.2494 16.2467 54.0334 17.236C54.836 18.2253 55.8534 18.72 57.0854 18.72C57.888 18.72 58.56 18.5053 59.1014 18.076C59.6427 17.628 59.9134 16.8907 59.9134 15.864C59.9134 15.0427 59.7267 14.324 59.3534 13.708C58.9987 13.092 58.5507 12.5787 58.0094 12.168C57.4867 11.7573 56.768 11.2533 55.8534 10.656C54.9574 10.0773 54.2574 9.592 53.7534 9.2C53.2494 8.78933 52.82 8.29467 52.4654 7.716C52.1107 7.11867 51.9334 6.428 51.9334 5.644C51.9334 4.67333 52.204 3.852 52.7454 3.18C53.2867 2.508 53.9867 2.01333 54.8454 1.696C55.7227 1.36 56.6374 1.192 57.5894 1.192C58.224 1.192 58.8587 1.25733 59.4934 1.388C60.128 1.5 60.66 1.64933 61.0894 1.836C61.3694 1.948 61.5094 2.12533 61.5094 2.368L61.5934 6.176C61.5934 6.232 61.5374 6.26933 61.4254 6.288C61.332 6.30667 61.276 6.288 61.2574 6.232C60.884 5.09333 60.38 4.06667 59.7454 3.152C59.1294 2.21867 58.196 1.752 56.9454 1.752C56.1054 1.752 55.4334 1.99467 54.9294 2.48C54.444 2.96533 54.2014 3.628 54.2014 4.468ZM68.3928 4.468C68.3928 5.15867 68.5608 5.77467 68.8968 6.316C69.2514 6.83867 69.6808 7.296 70.1848 7.688C70.7074 8.08 71.4074 8.54667 72.2848 9.088C73.2368 9.68533 73.9834 10.1987 74.5248 10.628C75.0848 11.0573 75.5514 11.5893 75.9248 12.224C76.3168 12.84 76.5128 13.568 76.5128 14.408C76.5128 15.36 76.2608 16.2093 75.7568 16.956C75.2714 17.7027 74.5714 18.2907 73.6568 18.72C72.7608 19.1307 71.7341 19.336 70.5768 19.336C69.7928 19.336 68.9808 19.2333 68.1408 19.028C67.3194 18.8227 66.6941 18.5707 66.2648 18.272C66.0968 18.16 66.0034 17.9827 65.9848 17.74L65.8168 13.484V13.456C65.8168 13.3813 65.8634 13.344 65.9568 13.344C66.0501 13.3253 66.1061 13.3533 66.1248 13.428C66.7408 14.9773 67.4408 16.2467 68.2248 17.236C69.0274 18.2253 70.0448 18.72 71.2768 18.72C72.0794 18.72 72.7514 18.5053 73.2928 18.076C73.8341 17.628 74.1048 16.8907 74.1048 15.864C74.1048 15.0427 73.9181 14.324 73.5448 13.708C73.1901 13.092 72.7421 12.5787 72.2008 12.168C71.6781 11.7573 70.9594 11.2533 70.0448 10.656C69.1488 10.0773 68.4488 9.592 67.9448 9.2C67.4408 8.78933 67.0114 8.29467 66.6568 7.716C66.3021 7.11867 66.1248 6.428 66.1248 5.644C66.1248 4.67333 66.3954 3.852 66.9368 3.18C67.4781 2.508 68.1781 2.01333 69.0368 1.696C69.9141 1.36 70.8288 1.192 71.7808 1.192C72.4154 1.192 73.0501 1.25733 73.6848 1.388C74.3194 1.5 74.8514 1.64933 75.2808 1.836C75.5608 1.948 75.7008 2.12533 75.7008 2.368L75.7848 6.176C75.7848 6.232 75.7288 6.26933 75.6168 6.288C75.5234 6.30667 75.4674 6.288 75.4488 6.232C75.0754 5.09333 74.5714 4.06667 73.9368 3.152C73.3208 2.21867 72.3874 1.752 71.1368 1.752C70.2968 1.752 69.6248 1.99467 69.1208 2.48C68.6354 2.96533 68.3928 3.628 68.3928 4.468ZM104.127 18.664C104.183 18.664 104.211 18.72 104.211 18.832C104.211 18.944 104.183 19 104.127 19H99.6187C99.1894 19 98.3867 18.2533 97.2107 16.76C96.0534 15.2667 94.644 13.176 92.9827 10.488C92.572 10.5253 92.2547 10.544 92.0307 10.544C91.62 10.544 91.1347 10.5253 90.5747 10.488V16.732C90.5747 17.3107 90.6214 17.7307 90.7147 17.992C90.8267 18.2533 91.0227 18.4307 91.3027 18.524C91.6014 18.6173 92.068 18.664 92.7027 18.664C92.74 18.664 92.7587 18.72 92.7587 18.832C92.7587 18.944 92.74 19 92.7027 19C92.0867 19 91.6107 18.9907 91.2747 18.972L89.2027 18.944L87.1867 18.972C86.832 18.9907 86.3467 19 85.7307 19C85.6747 19 85.6467 18.944 85.6467 18.832C85.6467 18.72 85.6747 18.664 85.7307 18.664C86.3654 18.664 86.8227 18.6173 87.1027 18.524C87.4014 18.4307 87.6067 18.2533 87.7187 17.992C87.8307 17.712 87.8867 17.292 87.8867 16.732V3.768C87.8867 3.208 87.8307 2.79733 87.7187 2.536C87.6254 2.27467 87.4294 2.09733 87.1307 2.004C86.832 1.892 86.3747 1.836 85.7587 1.836C85.7214 1.836 85.7027 1.78 85.7027 1.668C85.7027 1.556 85.7214 1.5 85.7587 1.5L87.2147 1.528C88.036 1.56533 88.6987 1.584 89.2027 1.584C89.8187 1.584 90.4907 1.556 91.2187 1.5C91.4614 1.48133 91.7507 1.46267 92.0867 1.444C92.4414 1.42533 92.8334 1.416 93.2627 1.416C94.8867 1.416 96.1374 1.73333 97.0147 2.368C97.9107 3.00267 98.3587 3.88933 98.3587 5.028C98.3587 6.05467 98.0694 6.97867 97.4907 7.8C96.9307 8.62133 96.1747 9.27467 95.2227 9.76C96.7534 12.0187 98.032 13.7827 99.0587 15.052C100.085 16.3213 100.991 17.2453 101.775 17.824C102.577 18.384 103.361 18.664 104.127 18.664ZM90.5747 9.732C91.0227 9.80667 91.564 9.844 92.1987 9.844C93.412 9.844 94.28 9.54533 94.8027 8.948C95.3254 8.332 95.5867 7.352 95.5867 6.008C95.5867 4.496 95.3254 3.44133 94.8027 2.844C94.2987 2.24667 93.5614 1.948 92.5907 1.948C91.8627 1.948 91.34 2.088 91.0227 2.368C90.724 2.62933 90.5747 3.11467 90.5747 3.824V9.732ZM117.579 14.632C117.579 14.5947 117.616 14.576 117.691 14.576C117.747 14.576 117.793 14.5947 117.831 14.632C117.887 14.6507 117.915 14.6693 117.915 14.688C117.728 16.1067 117.635 17.404 117.635 18.58C117.635 18.7293 117.607 18.8413 117.551 18.916C117.495 18.972 117.383 19 117.215 19H105.063C105.007 19 104.979 18.944 104.979 18.832C104.979 18.72 105.007 18.664 105.063 18.664C105.697 18.664 106.155 18.6173 106.435 18.524C106.733 18.4307 106.929 18.2533 107.023 17.992C107.135 17.712 107.191 17.292 107.191 16.732V3.768C107.191 3.208 107.135 2.79733 107.023 2.536C106.929 2.27467 106.733 2.09733 106.435 2.004C106.136 1.892 105.679 1.836 105.063 1.836C105.007 1.836 104.979 1.78 104.979 1.668C104.979 1.556 105.007 1.5 105.063 1.5H116.711C116.897 1.5 116.991 1.584 116.991 1.752L117.047 5.392C117.047 5.42933 116.991 5.45733 116.879 5.476C116.785 5.49467 116.729 5.476 116.711 5.42C116.263 3.292 114.965 2.228 112.819 2.228H111.699C111.027 2.228 110.551 2.34933 110.271 2.592C109.991 2.83467 109.851 3.24533 109.851 3.824V9.536H112.539C114.592 9.536 115.619 8.84533 115.619 7.464C115.619 7.408 115.665 7.38 115.759 7.38C115.871 7.38 115.927 7.408 115.927 7.464L115.899 9.9L115.927 11.216C115.964 11.8133 115.983 12.2987 115.983 12.672C115.983 12.7093 115.927 12.728 115.815 12.728C115.703 12.728 115.647 12.7093 115.647 12.672C115.647 11.0667 114.601 10.264 112.511 10.264H109.851V16.62C109.851 17.236 109.963 17.6653 110.187 17.908C110.429 18.1507 110.849 18.272 111.447 18.272H112.819C115.32 18.272 116.907 17.0587 117.579 14.632ZM123.791 4.468C123.791 5.15867 123.959 5.77467 124.295 6.316C124.65 6.83867 125.079 7.296 125.583 7.688C126.106 8.08 126.806 8.54667 127.683 9.088C128.635 9.68533 129.382 10.1987 129.923 10.628C130.483 11.0573 130.95 11.5893 131.323 12.224C131.715 12.84 131.911 13.568 131.911 14.408C131.911 15.36 131.659 16.2093 131.155 16.956C130.67 17.7027 129.97 18.2907 129.055 18.72C128.159 19.1307 127.133 19.336 125.975 19.336C125.191 19.336 124.379 19.2333 123.539 19.028C122.718 18.8227 122.093 18.5707 121.663 18.272C121.495 18.16 121.402 17.9827 121.383 17.74L121.215 13.484V13.456C121.215 13.3813 121.262 13.344 121.355 13.344C121.449 13.3253 121.505 13.3533 121.523 13.428C122.139 14.9773 122.839 16.2467 123.623 17.236C124.426 18.2253 125.443 18.72 126.675 18.72C127.478 18.72 128.15 18.5053 128.691 18.076C129.233 17.628 129.503 16.8907 129.503 15.864C129.503 15.0427 129.317 14.324 128.943 13.708C128.589 13.092 128.141 12.5787 127.599 12.168C127.077 11.7573 126.358 11.2533 125.443 10.656C124.547 10.0773 123.847 9.592 123.343 9.2C122.839 8.78933 122.41 8.29467 122.055 7.716C121.701 7.11867 121.523 6.428 121.523 5.644C121.523 4.67333 121.794 3.852 122.335 3.18C122.877 2.508 123.577 2.01333 124.435 1.696C125.313 1.36 126.227 1.192 127.179 1.192C127.814 1.192 128.449 1.25733 129.083 1.388C129.718 1.5 130.25 1.64933 130.679 1.836C130.959 1.948 131.099 2.12533 131.099 2.368L131.183 6.176C131.183 6.232 131.127 6.26933 131.015 6.288C130.922 6.30667 130.866 6.288 130.847 6.232C130.474 5.09333 129.97 4.06667 129.335 3.152C128.719 2.21867 127.786 1.752 126.535 1.752C125.695 1.752 125.023 1.99467 124.519 2.48C124.034 2.96533 123.791 3.628 123.791 4.468ZM143.639 19.336C141.903 19.336 140.353 18.9347 138.991 18.132C137.647 17.3107 136.601 16.2093 135.855 14.828C135.127 13.428 134.763 11.9067 134.763 10.264C134.763 8.34133 135.248 6.69867 136.219 5.336C137.189 3.95467 138.431 2.91867 139.943 2.228C141.473 1.53733 143.032 1.192 144.619 1.192C146.392 1.192 147.951 1.612 149.295 2.452C150.639 3.27333 151.665 4.36533 152.375 5.728C153.103 7.09067 153.467 8.53733 153.467 10.068C153.467 11.7667 153.019 13.3253 152.123 14.744C151.227 16.1627 150.023 17.2827 148.511 18.104C147.017 18.9253 145.393 19.336 143.639 19.336ZM144.591 18.664C145.711 18.664 146.709 18.3653 147.587 17.768C148.483 17.152 149.183 16.256 149.687 15.08C150.209 13.904 150.471 12.504 150.471 10.88C150.471 9.16267 150.181 7.62267 149.603 6.26C149.043 4.89733 148.231 3.83333 147.167 3.068C146.121 2.30267 144.889 1.92 143.471 1.92C141.66 1.92 140.251 2.57333 139.243 3.88C138.253 5.168 137.759 6.96 137.759 9.256C137.759 11.0293 138.048 12.6347 138.627 14.072C139.224 15.5093 140.036 16.6387 141.063 17.46C142.108 18.2627 143.284 18.664 144.591 18.664ZM174.4 18.664C174.456 18.664 174.484 18.72 174.484 18.832C174.484 18.944 174.456 19 174.4 19H169.892C169.463 19 168.66 18.2533 167.484 16.76C166.327 15.2667 164.917 13.176 163.256 10.488C162.845 10.5253 162.528 10.544 162.304 10.544C161.893 10.544 161.408 10.5253 160.848 10.488V16.732C160.848 17.3107 160.895 17.7307 160.988 17.992C161.1 18.2533 161.296 18.4307 161.576 18.524C161.875 18.6173 162.341 18.664 162.976 18.664C163.013 18.664 163.032 18.72 163.032 18.832C163.032 18.944 163.013 19 162.976 19C162.36 19 161.884 18.9907 161.548 18.972L159.476 18.944L157.46 18.972C157.105 18.9907 156.62 19 156.004 19C155.948 19 155.92 18.944 155.92 18.832C155.92 18.72 155.948 18.664 156.004 18.664C156.639 18.664 157.096 18.6173 157.376 18.524C157.675 18.4307 157.88 18.2533 157.992 17.992C158.104 17.712 158.16 17.292 158.16 16.732V3.768C158.16 3.208 158.104 2.79733 157.992 2.536C157.899 2.27467 157.703 2.09733 157.404 2.004C157.105 1.892 156.648 1.836 156.032 1.836C155.995 1.836 155.976 1.78 155.976 1.668C155.976 1.556 155.995 1.5 156.032 1.5L157.488 1.528C158.309 1.56533 158.972 1.584 159.476 1.584C160.092 1.584 160.764 1.556 161.492 1.5C161.735 1.48133 162.024 1.46267 162.36 1.444C162.715 1.42533 163.107 1.416 163.536 1.416C165.16 1.416 166.411 1.73333 167.288 2.368C168.184 3.00267 168.632 3.88933 168.632 5.028C168.632 6.05467 168.343 6.97867 167.764 7.8C167.204 8.62133 166.448 9.27467 165.496 9.76C167.027 12.0187 168.305 13.7827 169.332 15.052C170.359 16.3213 171.264 17.2453 172.048 17.824C172.851 18.384 173.635 18.664 174.4 18.664ZM160.848 9.732C161.296 9.80667 161.837 9.844 162.472 9.844C163.685 9.844 164.553 9.54533 165.076 8.948C165.599 8.332 165.86 7.352 165.86 6.008C165.86 4.496 165.599 3.44133 165.076 2.844C164.572 2.24667 163.835 1.948 162.864 1.948C162.136 1.948 161.613 2.088 161.296 2.368C160.997 2.62933 160.848 3.11467 160.848 3.824V9.732ZM177.771 2.088C176.633 2.088 175.69 2.44267 174.943 3.152C174.215 3.84267 173.655 4.89733 173.263 6.316C173.263 6.35333 173.207 6.372 173.095 6.372C173.002 6.372 172.955 6.344 172.955 6.288C173.03 5.56 173.114 4.62667 173.207 3.488C173.301 2.33067 173.347 1.46267 173.347 0.884C173.347 0.790666 173.394 0.744 173.487 0.744C173.599 0.744 173.655 0.790666 173.655 0.884C173.655 1.29467 174.178 1.5 175.223 1.5C176.829 1.556 178.705 1.584 180.851 1.584C181.953 1.584 183.119 1.56533 184.351 1.528L186.255 1.5C186.965 1.5 187.478 1.45333 187.795 1.36C188.131 1.26667 188.346 1.08 188.439 0.799999C188.458 0.725332 188.514 0.687999 188.607 0.687999C188.701 0.687999 188.747 0.725332 188.747 0.799999C188.691 1.37867 188.635 2.256 188.579 3.432C188.523 4.608 188.495 5.56 188.495 6.288C188.495 6.344 188.439 6.372 188.327 6.372C188.234 6.372 188.178 6.344 188.159 6.288C187.973 4.85067 187.534 3.796 186.843 3.124C186.153 2.43333 185.219 2.088 184.043 2.088C183.521 2.088 183.129 2.13467 182.867 2.228C182.625 2.32133 182.457 2.48933 182.363 2.732C182.289 2.956 182.251 3.32 182.251 3.824V16.732C182.251 17.3107 182.307 17.7307 182.419 17.992C182.531 18.2533 182.755 18.4307 183.091 18.524C183.427 18.6173 183.959 18.664 184.687 18.664C184.743 18.664 184.771 18.72 184.771 18.832C184.771 18.944 184.743 19 184.687 19C184.034 19 183.521 18.9907 183.147 18.972L180.851 18.944L178.667 18.972C178.275 18.9907 177.734 19 177.043 19C177.006 19 176.987 18.944 176.987 18.832C176.987 18.72 177.006 18.664 177.043 18.664C177.771 18.664 178.303 18.6173 178.639 18.524C178.994 18.4307 179.227 18.2533 179.339 17.992C179.47 17.712 179.535 17.292 179.535 16.732V3.768C179.535 3.28267 179.489 2.928 179.395 2.704C179.302 2.48 179.134 2.32133 178.891 2.228C178.649 2.13467 178.275 2.088 177.771 2.088Z" fill="#122223"/>
<path d="M56.2627 32.6H57.2827V40.04H60.5827V41H56.2627V32.6ZM61.6051 32.6H62.6251V38.24C62.6251 38.816 62.7811 39.28 63.0931 39.632C63.4051 39.984 63.8611 40.16 64.4611 40.16C65.0611 40.16 65.5171 39.984 65.8291 39.632C66.1411 39.28 66.2971 38.816 66.2971 38.24V32.6H67.3171V38.24C67.3171 38.656 67.2491 39.04 67.1131 39.392C66.9851 39.744 66.7931 40.048 66.5371 40.304C66.2891 40.56 65.9891 40.76 65.6371 40.904C65.2851 41.048 64.8931 41.12 64.4611 41.12C64.0291 41.12 63.6371 41.048 63.2851 40.904C62.9331 40.76 62.6291 40.56 62.3731 40.304C62.1251 40.048 61.9331 39.744 61.7971 39.392C61.6691 39.04 61.6051 38.656 61.6051 38.24V32.6ZM73.3768 32.6H74.5768L72.0928 36.596L74.7568 41H73.5568L71.5768 37.484L69.5368 41H68.3368L71.0728 36.596L68.6368 32.6H69.8368L71.5888 35.708L73.3768 32.6ZM75.773 32.6H76.793V38.24C76.793 38.816 76.949 39.28 77.261 39.632C77.573 39.984 78.029 40.16 78.629 40.16C79.229 40.16 79.685 39.984 79.997 39.632C80.309 39.28 80.465 38.816 80.465 38.24V32.6H81.485V38.24C81.485 38.656 81.417 39.04 81.281 39.392C81.153 39.744 80.961 40.048 80.705 40.304C80.457 40.56 80.157 40.76 79.805 40.904C79.453 41.048 79.061 41.12 78.629 41.12C78.197 41.12 77.805 41.048 77.453 40.904C77.101 40.76 76.797 40.56 76.541 40.304C76.293 40.048 76.101 39.744 75.965 39.392C75.837 39.04 75.773 38.656 75.773 38.24V32.6ZM84.8448 36.86H85.9848L88.9848 41H87.7248L84.8448 36.86ZM83.3448 32.6H84.3648V41H83.3448V32.6ZM83.9088 33.5V32.6H85.6248C86.1688 32.6 86.6528 32.704 87.0768 32.912C87.5088 33.112 87.8488 33.4 88.0968 33.776C88.3528 34.152 88.4808 34.6 88.4808 35.12C88.4808 35.632 88.3528 36.08 88.0968 36.464C87.8488 36.84 87.5088 37.132 87.0768 37.34C86.6528 37.54 86.1688 37.64 85.6248 37.64H83.9088V36.74H85.6248C85.9848 36.74 86.3008 36.676 86.5728 36.548C86.8528 36.42 87.0688 36.236 87.2208 35.996C87.3808 35.756 87.4608 35.464 87.4608 35.12C87.4608 34.776 87.3808 34.484 87.2208 34.244C87.0688 34.004 86.8528 33.82 86.5728 33.692C86.3008 33.564 85.9848 33.5 85.6248 33.5H83.9088ZM94.6316 32.6H95.7716L92.9756 37.376V41H91.9556V37.388L89.1596 32.6H90.2996L92.4596 36.488L94.6316 32.6ZM100.948 36.92V35.96H106.708V36.92H100.948ZM106.024 32.6H107.044V41H106.024V32.6ZM100.384 32.6H101.404V41H100.384V32.6ZM109.562 36.8C109.562 37.432 109.698 37.996 109.97 38.492C110.25 38.988 110.63 39.38 111.11 39.668C111.59 39.956 112.134 40.1 112.742 40.1C113.358 40.1 113.902 39.956 114.374 39.668C114.854 39.38 115.23 38.988 115.502 38.492C115.782 37.996 115.922 37.432 115.922 36.8C115.922 36.168 115.782 35.604 115.502 35.108C115.23 34.612 114.854 34.22 114.374 33.932C113.902 33.644 113.358 33.5 112.742 33.5C112.134 33.5 111.59 33.644 111.11 33.932C110.63 34.22 110.25 34.612 109.97 35.108C109.698 35.604 109.562 36.168 109.562 36.8ZM108.482 36.8C108.482 36.184 108.586 35.616 108.794 35.096C109.01 34.568 109.31 34.112 109.694 33.728C110.078 33.336 110.53 33.032 111.05 32.816C111.57 32.592 112.134 32.48 112.742 32.48C113.358 32.48 113.922 32.592 114.434 32.816C114.954 33.032 115.406 33.336 115.79 33.728C116.174 34.112 116.47 34.568 116.678 35.096C116.894 35.616 117.002 36.184 117.002 36.8C117.002 37.408 116.894 37.976 116.678 38.504C116.47 39.032 116.174 39.492 115.79 39.884C115.406 40.268 114.954 40.572 114.434 40.796C113.922 41.012 113.358 41.12 112.742 41.12C112.134 41.12 111.57 41.012 111.05 40.796C110.53 40.572 110.078 40.268 109.694 39.884C109.31 39.492 109.01 39.032 108.794 38.504C108.586 37.976 108.482 37.408 108.482 36.8ZM117.239 33.56V32.6H122.579V33.56H120.419V41H119.399V33.56H117.239ZM124.221 41V40.04H128.457V41H124.221ZM124.221 33.56V32.6H128.457V33.56H124.221ZM124.221 36.92V35.96H128.217V36.92H124.221ZM123.657 32.6H124.677V41H123.657V32.6ZM130.255 32.6H131.275V40.04H134.575V41H130.255V32.6Z" fill="#122223"/>
</svg>
