<svg width="190" height="42" viewBox="0 0 190 42" fill="none" xmlns="http://www.w3.org/2000/svg">
<path d="M4.592 4.468C4.592 5.15867 4.76 5.77467 5.096 6.316C5.45067 6.83867 5.88 7.296 6.384 7.688C6.888 8.06133 7.57867 8.528 8.456 9.088C9.408 9.68533 10.1547 10.1987 10.696 10.628C11.256 11.0573 11.732 11.5893 12.124 12.224C12.516 12.84 12.712 13.568 12.712 14.408C12.712 15.36 12.46 16.2093 11.956 16.956C11.4707 17.7027 10.7707 18.2907 9.856 18.72C8.96 19.1307 7.93333 19.336 6.776 19.336C5.992 19.336 5.18 19.2333 4.34 19.028C3.51867 18.8227 2.89333 18.5707 2.464 18.272C2.296 18.16 2.20267 17.9827 2.184 17.74L2.016 13.512V13.484C2.016 13.4093 2.06267 13.372 2.156 13.372C2.24933 13.3533 2.30533 13.3813 2.324 13.456C2.94 14.9867 3.64 16.2467 4.424 17.236C5.22667 18.2253 6.23467 18.72 7.448 18.72C8.26933 18.72 8.95067 18.5053 9.492 18.076C10.0333 17.628 10.304 16.8907 10.304 15.864C10.304 15.0427 10.1173 14.324 9.744 13.708C9.38933 13.092 8.94133 12.5787 8.4 12.168C7.87733 11.7573 7.15867 11.2533 6.244 10.656C5.348 10.0773 4.648 9.592 4.144 9.2C3.64 8.78933 3.21067 8.29467 2.856 7.716C2.50133 7.11867 2.324 6.428 2.324 5.644C2.324 4.67333 2.59467 3.852 3.136 3.18C3.67733 2.508 4.37733 2.01333 5.236 1.696C6.11333 1.36 7.028 1.192 7.98 1.192C8.596 1.192 9.22133 1.25733 9.856 1.388C10.4907 1.5 11.032 1.64933 11.48 1.836C11.76 1.948 11.9 2.12533 11.9 2.368L11.956 6.148C11.956 6.22267 11.9093 6.26933 11.816 6.288C11.7413 6.30667 11.6853 6.288 11.648 6.232C11.2747 5.09333 10.7707 4.06667 10.136 3.152C9.52 2.21867 8.58667 1.752 7.336 1.752C6.496 1.752 5.824 2.004 5.32 2.508C4.83467 2.99333 4.592 3.64667 4.592 4.468ZM24.1874 18.972C24.1687 19.0467 24.0661 19.084 23.8794 19.084C23.6927 19.084 23.5901 19.0467 23.5714 18.972L16.4874 3.824C16.0954 3.00267 15.7594 2.47067 15.4794 2.228C15.2181 1.96667 14.8167 1.836 14.2754 1.836C14.2194 1.836 14.1914 1.78 14.1914 1.668C14.1914 1.556 14.2194 1.5 14.2754 1.5L15.0034 1.528C15.4514 1.56533 15.9181 1.584 16.4034 1.584C17.4674 1.584 18.4101 1.56533 19.2314 1.528C19.4927 1.50933 19.8194 1.5 20.2114 1.5C20.2674 1.5 20.2954 1.556 20.2954 1.668C20.2954 1.78 20.2674 1.836 20.2114 1.836C19.7261 1.836 19.3714 1.892 19.1474 2.004C18.9234 2.09733 18.8114 2.27467 18.8114 2.536C18.8114 2.816 18.9887 3.33867 19.3434 4.104L24.9434 16.06L23.8234 17.796L27.1834 9.06L27.6874 9.788L24.1874 18.972ZM40.0354 1.5C40.0727 1.5 40.0914 1.556 40.0914 1.668C40.0914 1.78 40.0727 1.836 40.0354 1.836C39.3634 1.836 38.7474 2.088 38.1874 2.592C37.6274 3.096 37.1607 3.824 36.7874 4.776L31.3554 18.972C31.3367 19.0467 31.2341 19.084 31.0474 19.084C30.8607 19.084 30.7581 19.0467 30.7394 18.972L23.6554 3.824C23.3381 3.152 23.0301 2.65733 22.7314 2.34C22.4327 2.004 22.0874 1.836 21.6954 1.836C21.6394 1.836 21.6114 1.78 21.6114 1.668C21.6114 1.556 21.6394 1.5 21.6954 1.5L22.3674 1.528C22.7781 1.56533 23.1887 1.584 23.5994 1.584C24.4767 1.584 25.2514 1.56533 25.9234 1.528C26.1101 1.50933 26.3527 1.5 26.6514 1.5C26.7074 1.5 26.7354 1.556 26.7354 1.668C26.7354 1.78 26.7074 1.836 26.6514 1.836C26.3714 1.836 26.1661 1.87333 26.0354 1.948C25.9047 2.004 25.8394 2.12533 25.8394 2.312C25.8394 2.46133 25.8954 2.69467 26.0074 3.012C26.1381 3.32933 26.2967 3.69333 26.4834 4.104L32.1394 16.06L31.0194 17.796L35.9754 4.86C36.1621 4.37467 36.2554 3.91733 36.2554 3.488C36.2554 2.96533 36.0967 2.564 35.7794 2.284C35.4807 1.98533 35.0514 1.836 34.4914 1.836C34.4354 1.836 34.4074 1.78 34.4074 1.668C34.4074 1.556 34.4354 1.5 34.4914 1.5L35.7234 1.528C36.3954 1.56533 37.0021 1.584 37.5434 1.584C37.9167 1.584 38.3461 1.56533 38.8314 1.528L40.0354 1.5ZM29.0314 4.664C29.3674 3.78667 29.5354 3.124 29.5354 2.676C29.5354 2.116 29.2554 1.836 28.6954 1.836C28.6394 1.836 28.6114 1.78 28.6114 1.668C28.6114 1.556 28.6394 1.5 28.6954 1.5C28.8634 1.5 29.0594 1.51867 29.2834 1.556C29.5074 1.57467 29.9181 1.584 30.5154 1.584C30.8514 1.584 31.2434 1.56533 31.6914 1.528L32.7834 1.5C32.8207 1.5 32.8394 1.556 32.8394 1.668C32.8394 1.78 32.8207 1.836 32.7834 1.836C32.1487 1.836 31.5887 2.06933 31.1034 2.536C30.6181 3.00267 30.1794 3.74933 29.7874 4.776L27.8554 9.788L27.3514 9.06L29.0314 4.664ZM45.9705 16.732C45.9705 17.3107 46.0172 17.7307 46.1105 17.992C46.2225 18.2533 46.4185 18.4307 46.6985 18.524C46.9972 18.6173 47.4639 18.664 48.0985 18.664C48.1545 18.664 48.1825 18.72 48.1825 18.832C48.1825 18.944 48.1545 19 48.0985 19C47.5012 19 47.0252 18.9907 46.6705 18.972L44.5985 18.944L42.5825 18.972C42.2279 18.9907 41.7425 19 41.1265 19C41.0705 19 41.0425 18.944 41.0425 18.832C41.0425 18.72 41.0705 18.664 41.1265 18.664C41.7612 18.664 42.2185 18.6173 42.4985 18.524C42.7972 18.4307 43.0025 18.2533 43.1145 17.992C43.2265 17.712 43.2825 17.292 43.2825 16.732V3.768C43.2825 3.208 43.2265 2.79733 43.1145 2.536C43.0025 2.27467 42.7972 2.09733 42.4985 2.004C42.2185 1.892 41.7612 1.836 41.1265 1.836C41.0705 1.836 41.0425 1.78 41.0425 1.668C41.0425 1.556 41.0705 1.5 41.1265 1.5L42.5825 1.528C43.4039 1.56533 44.0759 1.584 44.5985 1.584C45.1772 1.584 45.8772 1.56533 46.6985 1.528L48.0985 1.5C48.1545 1.5 48.1825 1.556 48.1825 1.668C48.1825 1.78 48.1545 1.836 48.0985 1.836C47.4825 1.836 47.0252 1.892 46.7265 2.004C46.4279 2.116 46.2225 2.312 46.1105 2.592C46.0172 2.85333 45.9705 3.264 45.9705 3.824V16.732ZM53.9748 4.468C53.9748 5.15867 54.1428 5.77467 54.4788 6.316C54.8335 6.83867 55.2628 7.296 55.7668 7.688C56.2708 8.06133 56.9615 8.528 57.8388 9.088C58.7908 9.68533 59.5375 10.1987 60.0788 10.628C60.6388 11.0573 61.1148 11.5893 61.5068 12.224C61.8988 12.84 62.0948 13.568 62.0948 14.408C62.0948 15.36 61.8428 16.2093 61.3388 16.956C60.8535 17.7027 60.1535 18.2907 59.2388 18.72C58.3428 19.1307 57.3161 19.336 56.1588 19.336C55.3748 19.336 54.5628 19.2333 53.7228 19.028C52.9015 18.8227 52.2761 18.5707 51.8468 18.272C51.6788 18.16 51.5855 17.9827 51.5668 17.74L51.3988 13.512V13.484C51.3988 13.4093 51.4455 13.372 51.5388 13.372C51.6321 13.3533 51.6881 13.3813 51.7068 13.456C52.3228 14.9867 53.0228 16.2467 53.8068 17.236C54.6095 18.2253 55.6175 18.72 56.8308 18.72C57.6521 18.72 58.3335 18.5053 58.8748 18.076C59.4161 17.628 59.6868 16.8907 59.6868 15.864C59.6868 15.0427 59.5001 14.324 59.1268 13.708C58.7721 13.092 58.3241 12.5787 57.7828 12.168C57.2601 11.7573 56.5415 11.2533 55.6268 10.656C54.7308 10.0773 54.0308 9.592 53.5268 9.2C53.0228 8.78933 52.5935 8.29467 52.2388 7.716C51.8841 7.11867 51.7068 6.428 51.7068 5.644C51.7068 4.67333 51.9775 3.852 52.5188 3.18C53.0601 2.508 53.7601 2.01333 54.6188 1.696C55.4961 1.36 56.4108 1.192 57.3628 1.192C57.9788 1.192 58.6041 1.25733 59.2388 1.388C59.8735 1.5 60.4148 1.64933 60.8628 1.836C61.1428 1.948 61.2828 2.12533 61.2828 2.368L61.3388 6.148C61.3388 6.22267 61.2921 6.26933 61.1988 6.288C61.1241 6.30667 61.0681 6.288 61.0308 6.232C60.6575 5.09333 60.1535 4.06667 59.5188 3.152C58.9028 2.21867 57.9695 1.752 56.7188 1.752C55.8788 1.752 55.2068 2.004 54.7028 2.508C54.2175 2.99333 53.9748 3.64667 53.9748 4.468ZM68.1662 4.468C68.1662 5.15867 68.3342 5.77467 68.6702 6.316C69.0249 6.83867 69.4542 7.296 69.9582 7.688C70.4622 8.06133 71.1529 8.528 72.0302 9.088C72.9822 9.68533 73.7289 10.1987 74.2702 10.628C74.8302 11.0573 75.3062 11.5893 75.6982 12.224C76.0902 12.84 76.2862 13.568 76.2862 14.408C76.2862 15.36 76.0342 16.2093 75.5302 16.956C75.0449 17.7027 74.3449 18.2907 73.4302 18.72C72.5342 19.1307 71.5076 19.336 70.3502 19.336C69.5662 19.336 68.7542 19.2333 67.9142 19.028C67.0929 18.8227 66.4676 18.5707 66.0382 18.272C65.8702 18.16 65.7769 17.9827 65.7582 17.74L65.5902 13.512V13.484C65.5902 13.4093 65.6369 13.372 65.7302 13.372C65.8236 13.3533 65.8796 13.3813 65.8982 13.456C66.5142 14.9867 67.2142 16.2467 67.9982 17.236C68.8009 18.2253 69.8089 18.72 71.0222 18.72C71.8436 18.72 72.5249 18.5053 73.0662 18.076C73.6076 17.628 73.8782 16.8907 73.8782 15.864C73.8782 15.0427 73.6916 14.324 73.3182 13.708C72.9636 13.092 72.5156 12.5787 71.9742 12.168C71.4516 11.7573 70.7329 11.2533 69.8182 10.656C68.9222 10.0773 68.2222 9.592 67.7182 9.2C67.2142 8.78933 66.7849 8.29467 66.4302 7.716C66.0756 7.11867 65.8982 6.428 65.8982 5.644C65.8982 4.67333 66.1689 3.852 66.7102 3.18C67.2516 2.508 67.9516 2.01333 68.8102 1.696C69.6876 1.36 70.6022 1.192 71.5542 1.192C72.1702 1.192 72.7956 1.25733 73.4302 1.388C74.0649 1.5 74.6062 1.64933 75.0542 1.836C75.3342 1.948 75.4742 2.12533 75.4742 2.368L75.5302 6.148C75.5302 6.22267 75.4836 6.26933 75.3902 6.288C75.3156 6.30667 75.2596 6.288 75.2222 6.232C74.8489 5.09333 74.3449 4.06667 73.7102 3.152C73.0942 2.21867 72.1609 1.752 70.9102 1.752C70.0702 1.752 69.3982 2.004 68.8942 2.508C68.4089 2.99333 68.1662 3.64667 68.1662 4.468ZM99.3921 19C98.9441 19 98.1135 18.216 96.9001 16.648C95.7055 15.08 94.2495 12.896 92.5321 10.096L94.7721 9.424C96.3401 11.7573 97.6468 13.5867 98.6921 14.912C99.7561 16.2187 100.699 17.1707 101.52 17.768C102.341 18.3653 103.135 18.664 103.9 18.664C103.937 18.664 103.956 18.72 103.956 18.832C103.956 18.944 103.937 19 103.9 19H99.3921ZM93.0361 1.416C94.6415 1.416 95.8921 1.74267 96.7881 2.396C97.6841 3.03067 98.1321 3.908 98.1321 5.028C98.1321 6.07333 97.8335 7.016 97.2361 7.856C96.6388 8.696 95.8455 9.35867 94.8561 9.844C93.8855 10.3107 92.8588 10.544 91.7761 10.544C91.3841 10.544 90.9081 10.5253 90.3481 10.488V16.732C90.3481 17.3107 90.3948 17.7307 90.4881 17.992C90.5815 18.2533 90.7681 18.4307 91.0481 18.524C91.3468 18.6173 91.8228 18.664 92.4761 18.664C92.5135 18.664 92.5321 18.72 92.5321 18.832C92.5321 18.944 92.5135 19 92.4761 19C91.8601 19 91.3748 18.9907 91.0201 18.972L88.9761 18.944L86.9601 18.972C86.6055 18.9907 86.1201 19 85.5041 19C85.4481 19 85.4201 18.944 85.4201 18.832C85.4201 18.72 85.4481 18.664 85.5041 18.664C86.1388 18.664 86.5961 18.6173 86.8761 18.524C87.1748 18.4307 87.3801 18.2533 87.4921 17.992C87.6041 17.712 87.6601 17.292 87.6601 16.732V3.768C87.6601 3.208 87.6041 2.79733 87.4921 2.536C87.3988 2.27467 87.2028 2.09733 86.9041 2.004C86.6055 1.892 86.1481 1.836 85.5321 1.836C85.4948 1.836 85.4761 1.78 85.4761 1.668C85.4761 1.556 85.4948 1.5 85.5321 1.5L86.9881 1.528C87.8095 1.56533 88.4721 1.584 88.9761 1.584C89.5921 1.584 90.2641 1.556 90.9921 1.5C91.2348 1.48133 91.5241 1.46267 91.8601 1.444C92.2148 1.42533 92.6068 1.416 93.0361 1.416ZM95.3601 6.008C95.3601 4.496 95.0988 3.44133 94.5761 2.844C94.0721 2.24667 93.3348 1.948 92.3641 1.948C91.6175 1.948 91.0948 2.088 90.7961 2.368C90.4975 2.62933 90.3481 3.11467 90.3481 3.824V9.732C90.7961 9.80667 91.3375 9.844 91.9721 9.844C93.1855 9.844 94.0535 9.54533 94.5761 8.948C95.0988 8.332 95.3601 7.352 95.3601 6.008ZM104.809 19C104.753 19 104.725 18.944 104.725 18.832C104.725 18.72 104.753 18.664 104.809 18.664C105.443 18.664 105.901 18.6173 106.181 18.524C106.479 18.4307 106.675 18.2533 106.769 17.992C106.881 17.712 106.937 17.292 106.937 16.732V3.768C106.937 3.208 106.881 2.79733 106.769 2.536C106.675 2.27467 106.479 2.09733 106.181 2.004C105.882 1.892 105.425 1.836 104.809 1.836C104.753 1.836 104.725 1.78 104.725 1.668C104.725 1.556 104.753 1.5 104.809 1.5H116.457C116.643 1.5 116.737 1.584 116.737 1.752L116.793 5.392C116.793 5.42933 116.737 5.45733 116.625 5.476C116.531 5.476 116.475 5.448 116.457 5.392C116.009 3.28267 114.721 2.228 112.593 2.228H111.445C110.754 2.228 110.269 2.34933 109.989 2.592C109.727 2.83467 109.597 3.24533 109.597 3.824V16.62C109.597 17.236 109.709 17.6653 109.933 17.908C110.175 18.1507 110.595 18.272 111.193 18.272H112.565C115.066 18.272 116.653 17.068 117.325 14.66C117.325 14.6227 117.371 14.604 117.465 14.604C117.595 14.604 117.661 14.632 117.661 14.688C117.474 16.1067 117.381 17.404 117.381 18.58C117.381 18.7293 117.353 18.8413 117.297 18.916C117.241 18.972 117.129 19 116.961 19H104.809ZM115.393 12.672C115.393 11.0667 114.347 10.264 112.257 10.264H108.337V9.536H112.285C114.338 9.536 115.365 8.84533 115.365 7.464C115.365 7.408 115.411 7.38 115.505 7.38C115.617 7.38 115.673 7.408 115.673 7.464L115.645 9.9L115.673 11.216C115.71 11.8133 115.729 12.2987 115.729 12.672C115.729 12.7093 115.673 12.728 115.561 12.728C115.449 12.728 115.393 12.7093 115.393 12.672ZM123.537 4.468C123.537 5.15867 123.705 5.77467 124.041 6.316C124.396 6.83867 124.825 7.296 125.329 7.688C125.833 8.06133 126.524 8.528 127.401 9.088C128.353 9.68533 129.1 10.1987 129.641 10.628C130.201 11.0573 130.677 11.5893 131.069 12.224C131.461 12.84 131.657 13.568 131.657 14.408C131.657 15.36 131.405 16.2093 130.901 16.956C130.416 17.7027 129.716 18.2907 128.801 18.72C127.905 19.1307 126.879 19.336 125.721 19.336C124.937 19.336 124.125 19.2333 123.285 19.028C122.464 18.8227 121.839 18.5707 121.409 18.272C121.241 18.16 121.148 17.9827 121.129 17.74L120.961 13.512V13.484C120.961 13.4093 121.008 13.372 121.101 13.372C121.195 13.3533 121.251 13.3813 121.269 13.456C121.885 14.9867 122.585 16.2467 123.369 17.236C124.172 18.2253 125.18 18.72 126.393 18.72C127.215 18.72 127.896 18.5053 128.437 18.076C128.979 17.628 129.249 16.8907 129.249 15.864C129.249 15.0427 129.063 14.324 128.689 13.708C128.335 13.092 127.887 12.5787 127.345 12.168C126.823 11.7573 126.104 11.2533 125.189 10.656C124.293 10.0773 123.593 9.592 123.089 9.2C122.585 8.78933 122.156 8.29467 121.801 7.716C121.447 7.11867 121.269 6.428 121.269 5.644C121.269 4.67333 121.54 3.852 122.081 3.18C122.623 2.508 123.323 2.01333 124.181 1.696C125.059 1.36 125.973 1.192 126.925 1.192C127.541 1.192 128.167 1.25733 128.801 1.388C129.436 1.5 129.977 1.64933 130.425 1.836C130.705 1.948 130.845 2.12533 130.845 2.368L130.901 6.148C130.901 6.22267 130.855 6.26933 130.761 6.288C130.687 6.30667 130.631 6.288 130.593 6.232C130.22 5.09333 129.716 4.06667 129.081 3.152C128.465 2.21867 127.532 1.752 126.281 1.752C125.441 1.752 124.769 2.004 124.265 2.508C123.78 2.99333 123.537 3.64667 123.537 4.468ZM143.385 19.336C141.649 19.336 140.099 18.9347 138.737 18.132C137.393 17.3107 136.347 16.2093 135.601 14.828C134.873 13.428 134.509 11.9067 134.509 10.264C134.509 8.34133 134.994 6.69867 135.965 5.336C136.935 3.95467 138.177 2.91867 139.689 2.228C141.219 1.53733 142.778 1.192 144.365 1.192C146.138 1.192 147.697 1.612 149.041 2.452C150.385 3.27333 151.411 4.36533 152.121 5.728C152.849 7.09067 153.213 8.53733 153.213 10.068C153.213 11.7667 152.765 13.3253 151.869 14.744C150.973 16.1627 149.769 17.2827 148.257 18.104C146.763 18.9253 145.139 19.336 143.385 19.336ZM144.337 18.664C145.457 18.664 146.455 18.3653 147.333 17.768C148.229 17.152 148.929 16.256 149.433 15.08C149.955 13.904 150.217 12.504 150.217 10.88C150.217 9.144 149.927 7.604 149.349 6.26C148.789 4.89733 147.977 3.83333 146.913 3.068C145.867 2.30267 144.635 1.92 143.217 1.92C141.387 1.92 139.978 2.57333 138.989 3.88C137.999 5.168 137.505 6.96 137.505 9.256C137.505 11.048 137.794 12.6627 138.373 14.1C138.951 15.5187 139.763 16.6387 140.809 17.46C141.854 18.2627 143.03 18.664 144.337 18.664ZM169.638 19C169.19 19 168.36 18.216 167.146 16.648C165.952 15.08 164.496 12.896 162.778 10.096L165.018 9.424C166.586 11.7573 167.893 13.5867 168.938 14.912C170.002 16.2187 170.945 17.1707 171.766 17.768C172.588 18.3653 173.381 18.664 174.146 18.664C174.184 18.664 174.202 18.72 174.202 18.832C174.202 18.944 174.184 19 174.146 19H169.638ZM163.282 1.416C164.888 1.416 166.138 1.74267 167.034 2.396C167.93 3.03067 168.378 3.908 168.378 5.028C168.378 6.07333 168.08 7.016 167.482 7.856C166.885 8.696 166.092 9.35867 165.102 9.844C164.132 10.3107 163.105 10.544 162.022 10.544C161.63 10.544 161.154 10.5253 160.594 10.488V16.732C160.594 17.3107 160.641 17.7307 160.734 17.992C160.828 18.2533 161.014 18.4307 161.294 18.524C161.593 18.6173 162.069 18.664 162.722 18.664C162.76 18.664 162.778 18.72 162.778 18.832C162.778 18.944 162.76 19 162.722 19C162.106 19 161.621 18.9907 161.266 18.972L159.222 18.944L157.206 18.972C156.852 18.9907 156.366 19 155.75 19C155.694 19 155.666 18.944 155.666 18.832C155.666 18.72 155.694 18.664 155.75 18.664C156.385 18.664 156.842 18.6173 157.122 18.524C157.421 18.4307 157.626 18.2533 157.738 17.992C157.85 17.712 157.906 17.292 157.906 16.732V3.768C157.906 3.208 157.85 2.79733 157.738 2.536C157.645 2.27467 157.449 2.09733 157.15 2.004C156.852 1.892 156.394 1.836 155.778 1.836C155.741 1.836 155.722 1.78 155.722 1.668C155.722 1.556 155.741 1.5 155.778 1.5L157.234 1.528C158.056 1.56533 158.718 1.584 159.222 1.584C159.838 1.584 160.51 1.556 161.238 1.5C161.481 1.48133 161.77 1.46267 162.106 1.444C162.461 1.42533 162.853 1.416 163.282 1.416ZM165.606 6.008C165.606 4.496 165.345 3.44133 164.822 2.844C164.318 2.24667 163.581 1.948 162.61 1.948C161.864 1.948 161.341 2.088 161.042 2.368C160.744 2.62933 160.594 3.11467 160.594 3.824V9.732C161.042 9.80667 161.584 9.844 162.218 9.844C163.432 9.844 164.3 9.54533 164.822 8.948C165.345 8.332 165.606 7.352 165.606 6.008ZM177.462 2.088C176.323 2.088 175.39 2.44267 174.662 3.152C173.934 3.84267 173.374 4.888 172.982 6.288C172.982 6.344 172.926 6.372 172.814 6.372C172.721 6.35333 172.674 6.32533 172.674 6.288C172.749 5.56 172.833 4.62667 172.926 3.488C173.019 2.33067 173.066 1.46267 173.066 0.884C173.066 0.790666 173.113 0.744 173.206 0.744C173.318 0.744 173.374 0.790666 173.374 0.884C173.374 1.29467 173.897 1.5 174.942 1.5C176.547 1.556 178.423 1.584 180.57 1.584C181.671 1.584 182.838 1.56533 184.07 1.528L185.974 1.5C186.683 1.5 187.197 1.45333 187.514 1.36C187.85 1.26667 188.065 1.08 188.158 0.799999C188.177 0.725332 188.233 0.687999 188.326 0.687999C188.419 0.687999 188.466 0.725332 188.466 0.799999C188.41 1.37867 188.354 2.256 188.298 3.432C188.242 4.608 188.214 5.56 188.214 6.288C188.214 6.32533 188.158 6.344 188.046 6.344C187.953 6.344 187.897 6.32533 187.878 6.288C187.691 4.85067 187.253 3.796 186.562 3.124C185.871 2.43333 184.938 2.088 183.762 2.088C183.239 2.088 182.847 2.13467 182.586 2.228C182.343 2.32133 182.175 2.48933 182.082 2.732C181.989 2.956 181.942 3.32 181.942 3.824V16.732C181.942 17.292 181.998 17.712 182.11 17.992C182.241 18.2533 182.474 18.4307 182.81 18.524C183.146 18.6173 183.678 18.664 184.406 18.664C184.462 18.664 184.49 18.72 184.49 18.832C184.49 18.944 184.462 19 184.406 19C183.753 19 183.239 18.9907 182.866 18.972L180.57 18.944L178.386 18.972C177.994 18.9907 177.453 19 176.762 19C176.725 19 176.706 18.944 176.706 18.832C176.706 18.72 176.725 18.664 176.762 18.664C177.49 18.664 178.022 18.6173 178.358 18.524C178.713 18.4307 178.946 18.2533 179.058 17.992C179.189 17.712 179.254 17.292 179.254 16.732V3.768C179.254 3.28267 179.207 2.928 179.114 2.704C179.021 2.46133 178.853 2.30267 178.61 2.228C178.367 2.13467 177.985 2.088 177.462 2.088Z" fill="#122223"/>
<path d="M41.9984 38.48L42.3584 37.52H46.0784L46.4384 38.48H41.9984ZM44.1944 34.496L42.7784 37.832L42.6824 38.048L41.4344 41H40.2944L44.1944 32.18L48.0944 41H46.9544L45.7304 38.12L45.6344 37.88L44.1944 34.496ZM49.1163 32.6H50.1363V41H49.1163V32.6ZM49.6803 33.56V32.6H51.3963C51.9403 32.6 52.4243 32.704 52.8483 32.912C53.2803 33.112 53.6203 33.4 53.8683 33.776C54.1243 34.152 54.2523 34.6 54.2523 35.12C54.2523 35.632 54.1243 36.08 53.8683 36.464C53.6203 36.84 53.2803 37.132 52.8483 37.34C52.4243 37.54 51.9403 37.64 51.3963 37.64H49.6803V36.68H51.3963C51.7563 36.68 52.0723 36.624 52.3443 36.512C52.6243 36.392 52.8403 36.216 52.9923 35.984C53.1523 35.752 53.2323 35.464 53.2323 35.12C53.2323 34.776 53.1523 34.488 52.9923 34.256C52.8403 34.024 52.6243 33.852 52.3443 33.74C52.0723 33.62 51.7563 33.56 51.3963 33.56H49.6803ZM55.6507 38.48L56.0107 37.52H59.7307L60.0907 38.48H55.6507ZM57.8467 34.496L56.4307 37.832L56.3347 38.048L55.0867 41H53.9467L57.8467 32.18L61.7467 41H60.6067L59.3827 38.12L59.2867 37.88L57.8467 34.496ZM64.2686 36.86H65.4086L68.4086 41H67.1486L64.2686 36.86ZM62.7686 32.6H63.7886V41H62.7686V32.6ZM63.3326 33.5V32.6H65.0486C65.5926 32.6 66.0766 32.704 66.5006 32.912C66.9326 33.112 67.2726 33.4 67.5206 33.776C67.7766 34.152 67.9046 34.6 67.9046 35.12C67.9046 35.632 67.7766 36.08 67.5206 36.464C67.2726 36.84 66.9326 37.132 66.5006 37.34C66.0766 37.54 65.5926 37.64 65.0486 37.64H63.3326V36.74H65.0486C65.4086 36.74 65.7246 36.676 65.9966 36.548C66.2766 36.42 66.4926 36.236 66.6446 35.996C66.8046 35.756 66.8846 35.464 66.8846 35.12C66.8846 34.776 66.8046 34.484 66.6446 34.244C66.4926 34.004 66.2766 33.82 65.9966 33.692C65.7246 33.564 65.4086 33.5 65.0486 33.5H63.3326ZM68.6434 33.56V32.6H73.9834V33.56H71.8234V41H70.8034V33.56H68.6434ZM75.6256 41V40.04H79.8616V41H75.6256ZM75.6256 33.56V32.6H79.8616V33.56H75.6256ZM75.6256 36.92V35.96H79.6216V36.92H75.6256ZM75.0616 32.6H76.0816V41H75.0616V32.6ZM82.8232 35.324L82.1992 41H81.1792L82.1992 32.18L85.5592 38.264L88.9192 32.18L89.9392 41H88.9192L88.2952 35.324L85.5592 40.22L82.8232 35.324ZM91.9381 41V40.04H96.1741V41H91.9381ZM91.9381 33.56V32.6H96.1741V33.56H91.9381ZM91.9381 36.92V35.96H95.9341V36.92H91.9381ZM91.3741 32.6H92.3941V41H91.3741V32.6ZM104.332 32.6H105.352V41.42L98.9917 34.748V41H97.9717V32.18L104.332 38.852V32.6ZM106.436 33.56V32.6H111.776V33.56H109.616V41H108.596V33.56H106.436ZM117.016 36.92V35.96H122.776V36.92H117.016ZM122.092 32.6H123.112V41H122.092V32.6ZM116.452 32.6H117.472V41H116.452V32.6ZM125.63 36.8C125.63 37.272 125.706 37.712 125.858 38.12C126.018 38.52 126.242 38.868 126.53 39.164C126.818 39.46 127.154 39.692 127.538 39.86C127.93 40.02 128.354 40.1 128.81 40.1C129.266 40.1 129.686 40.02 130.07 39.86C130.462 39.692 130.802 39.46 131.09 39.164C131.378 38.868 131.598 38.52 131.75 38.12C131.91 37.712 131.99 37.272 131.99 36.8C131.99 36.328 131.91 35.892 131.75 35.492C131.598 35.084 131.378 34.732 131.09 34.436C130.802 34.14 130.462 33.912 130.07 33.752C129.686 33.584 129.266 33.5 128.81 33.5C128.354 33.5 127.93 33.584 127.538 33.752C127.154 33.912 126.818 34.14 126.53 34.436C126.242 34.732 126.018 35.084 125.858 35.492C125.706 35.892 125.63 36.328 125.63 36.8ZM124.55 36.8C124.55 36.184 124.654 35.616 124.862 35.096C125.078 34.568 125.378 34.112 125.762 33.728C126.146 33.336 126.598 33.032 127.118 32.816C127.638 32.592 128.202 32.48 128.81 32.48C129.426 32.48 129.99 32.592 130.502 32.816C131.022 33.032 131.474 33.336 131.858 33.728C132.242 34.112 132.538 34.568 132.746 35.096C132.962 35.616 133.07 36.184 133.07 36.8C133.07 37.408 132.962 37.976 132.746 38.504C132.538 39.032 132.242 39.492 131.858 39.884C131.474 40.268 131.022 40.572 130.502 40.796C129.99 41.012 129.426 41.12 128.81 41.12C128.202 41.12 127.638 41.012 127.118 40.796C126.598 40.572 126.146 40.268 125.762 39.884C125.378 39.492 125.078 39.032 124.862 38.504C124.654 37.976 124.55 37.408 124.55 36.8ZM133.308 33.56V32.6H138.648V33.56H136.488V41H135.468V33.56H133.308ZM140.29 41V40.04H144.526V41H140.29ZM140.29 33.56V32.6H144.526V33.56H140.29ZM140.29 36.92V35.96H144.286V36.92H140.29ZM139.726 32.6H140.746V41H139.726V32.6ZM146.323 32.6H147.343V40.04H150.643V41H146.323V32.6Z" fill="#122223"/>
</svg>
