<svg width="190" height="42" viewBox="0 0 190 42" fill="none" xmlns="http://www.w3.org/2000/svg">
<path d="M4.84591 4.468C4.84591 5.15867 5.01391 5.77467 5.34991 6.316C5.70457 6.83867 6.13391 7.296 6.63791 7.688C7.14191 8.06133 7.83257 8.528 8.70991 9.088C9.66191 9.68533 10.4086 10.1987 10.9499 10.628C11.5099 11.0573 11.9859 11.5893 12.3779 12.224C12.7699 12.84 12.9659 13.568 12.9659 14.408C12.9659 15.36 12.7139 16.2093 12.2099 16.956C11.7246 17.7027 11.0246 18.2907 10.1099 18.72C9.21391 19.1307 8.18724 19.336 7.02991 19.336C6.24591 19.336 5.43391 19.2333 4.59391 19.028C3.77257 18.8227 3.14724 18.5707 2.71791 18.272C2.54991 18.16 2.45657 17.9827 2.43791 17.74L2.26991 13.512V13.484C2.26991 13.4093 2.31657 13.372 2.40991 13.372C2.50324 13.3533 2.55924 13.3813 2.57791 13.456C3.19391 14.9867 3.89391 16.2467 4.67791 17.236C5.48057 18.2253 6.48857 18.72 7.70191 18.72C8.52324 18.72 9.20457 18.5053 9.74591 18.076C10.2872 17.628 10.5579 16.8907 10.5579 15.864C10.5579 15.0427 10.3712 14.324 9.99791 13.708C9.64324 13.092 9.19524 12.5787 8.65391 12.168C8.13124 11.7573 7.41257 11.2533 6.49791 10.656C5.60191 10.0773 4.90191 9.592 4.39791 9.2C3.89391 8.78933 3.46457 8.29467 3.10991 7.716C2.75524 7.11867 2.57791 6.428 2.57791 5.644C2.57791 4.67333 2.84857 3.852 3.38991 3.18C3.93124 2.508 4.63124 2.01333 5.48991 1.696C6.36724 1.36 7.28191 1.192 8.23391 1.192C8.84991 1.192 9.47524 1.25733 10.1099 1.388C10.7446 1.5 11.2859 1.64933 11.7339 1.836C12.0139 1.948 12.1539 2.12533 12.1539 2.368L12.2099 6.148C12.2099 6.22267 12.1632 6.26933 12.0699 6.288C11.9952 6.30667 11.9392 6.288 11.9019 6.232C11.5286 5.09333 11.0246 4.06667 10.3899 3.152C9.77391 2.21867 8.84057 1.752 7.58991 1.752C6.74991 1.752 6.07791 2.004 5.57391 2.508C5.08857 2.99333 4.84591 3.64667 4.84591 4.468ZM24.4413 18.972C24.4226 19.0467 24.32 19.084 24.1333 19.084C23.9466 19.084 23.844 19.0467 23.8253 18.972L16.7413 3.824C16.3493 3.00267 16.0133 2.47067 15.7333 2.228C15.472 1.96667 15.0706 1.836 14.5293 1.836C14.4733 1.836 14.4453 1.78 14.4453 1.668C14.4453 1.556 14.4733 1.5 14.5293 1.5L15.2573 1.528C15.7053 1.56533 16.172 1.584 16.6573 1.584C17.7213 1.584 18.664 1.56533 19.4853 1.528C19.7466 1.50933 20.0733 1.5 20.4653 1.5C20.5213 1.5 20.5493 1.556 20.5493 1.668C20.5493 1.78 20.5213 1.836 20.4653 1.836C19.98 1.836 19.6253 1.892 19.4013 2.004C19.1773 2.09733 19.0653 2.27467 19.0653 2.536C19.0653 2.816 19.2426 3.33867 19.5973 4.104L25.1973 16.06L24.0773 17.796L27.4373 9.06L27.9413 9.788L24.4413 18.972ZM40.2893 1.5C40.3266 1.5 40.3453 1.556 40.3453 1.668C40.3453 1.78 40.3266 1.836 40.2893 1.836C39.6173 1.836 39.0013 2.088 38.4413 2.592C37.8813 3.096 37.4146 3.824 37.0413 4.776L31.6093 18.972C31.5906 19.0467 31.488 19.084 31.3013 19.084C31.1146 19.084 31.012 19.0467 30.9933 18.972L23.9093 3.824C23.592 3.152 23.284 2.65733 22.9853 2.34C22.6866 2.004 22.3413 1.836 21.9493 1.836C21.8933 1.836 21.8653 1.78 21.8653 1.668C21.8653 1.556 21.8933 1.5 21.9493 1.5L22.6213 1.528C23.032 1.56533 23.4426 1.584 23.8533 1.584C24.7306 1.584 25.5053 1.56533 26.1773 1.528C26.364 1.50933 26.6066 1.5 26.9053 1.5C26.9613 1.5 26.9893 1.556 26.9893 1.668C26.9893 1.78 26.9613 1.836 26.9053 1.836C26.6253 1.836 26.42 1.87333 26.2893 1.948C26.1586 2.004 26.0933 2.12533 26.0933 2.312C26.0933 2.46133 26.1493 2.69467 26.2613 3.012C26.392 3.32933 26.5506 3.69333 26.7373 4.104L32.3933 16.06L31.2733 17.796L36.2293 4.86C36.416 4.37467 36.5093 3.91733 36.5093 3.488C36.5093 2.96533 36.3506 2.564 36.0333 2.284C35.7346 1.98533 35.3053 1.836 34.7453 1.836C34.6893 1.836 34.6613 1.78 34.6613 1.668C34.6613 1.556 34.6893 1.5 34.7453 1.5L35.9773 1.528C36.6493 1.56533 37.256 1.584 37.7973 1.584C38.1706 1.584 38.6 1.56533 39.0853 1.528L40.2893 1.5ZM29.2853 4.664C29.6213 3.78667 29.7893 3.124 29.7893 2.676C29.7893 2.116 29.5093 1.836 28.9493 1.836C28.8933 1.836 28.8653 1.78 28.8653 1.668C28.8653 1.556 28.8933 1.5 28.9493 1.5C29.1173 1.5 29.3133 1.51867 29.5373 1.556C29.7613 1.57467 30.172 1.584 30.7693 1.584C31.1053 1.584 31.4973 1.56533 31.9453 1.528L33.0373 1.5C33.0746 1.5 33.0933 1.556 33.0933 1.668C33.0933 1.78 33.0746 1.836 33.0373 1.836C32.4026 1.836 31.8426 2.06933 31.3573 2.536C30.872 3.00267 30.4333 3.74933 30.0413 4.776L28.1093 9.788L27.6053 9.06L29.2853 4.664ZM46.2244 16.732C46.2244 17.3107 46.2711 17.7307 46.3644 17.992C46.4764 18.2533 46.6724 18.4307 46.9524 18.524C47.2511 18.6173 47.7178 18.664 48.3524 18.664C48.4084 18.664 48.4364 18.72 48.4364 18.832C48.4364 18.944 48.4084 19 48.3524 19C47.7551 19 47.2791 18.9907 46.9244 18.972L44.8524 18.944L42.8364 18.972C42.4818 18.9907 41.9964 19 41.3804 19C41.3244 19 41.2964 18.944 41.2964 18.832C41.2964 18.72 41.3244 18.664 41.3804 18.664C42.0151 18.664 42.4724 18.6173 42.7524 18.524C43.0511 18.4307 43.2564 18.2533 43.3684 17.992C43.4804 17.712 43.5364 17.292 43.5364 16.732V3.768C43.5364 3.208 43.4804 2.79733 43.3684 2.536C43.2564 2.27467 43.0511 2.09733 42.7524 2.004C42.4724 1.892 42.0151 1.836 41.3804 1.836C41.3244 1.836 41.2964 1.78 41.2964 1.668C41.2964 1.556 41.3244 1.5 41.3804 1.5L42.8364 1.528C43.6578 1.56533 44.3298 1.584 44.8524 1.584C45.4311 1.584 46.1311 1.56533 46.9524 1.528L48.3524 1.5C48.4084 1.5 48.4364 1.556 48.4364 1.668C48.4364 1.78 48.4084 1.836 48.3524 1.836C47.7364 1.836 47.2791 1.892 46.9804 2.004C46.6818 2.116 46.4764 2.312 46.3644 2.592C46.2711 2.85333 46.2244 3.264 46.2244 3.824V16.732ZM54.2287 4.468C54.2287 5.15867 54.3967 5.77467 54.7327 6.316C55.0874 6.83867 55.5167 7.296 56.0207 7.688C56.5247 8.06133 57.2154 8.528 58.0927 9.088C59.0447 9.68533 59.7914 10.1987 60.3327 10.628C60.8927 11.0573 61.3687 11.5893 61.7607 12.224C62.1527 12.84 62.3487 13.568 62.3487 14.408C62.3487 15.36 62.0967 16.2093 61.5927 16.956C61.1074 17.7027 60.4074 18.2907 59.4927 18.72C58.5967 19.1307 57.5701 19.336 56.4127 19.336C55.6287 19.336 54.8167 19.2333 53.9767 19.028C53.1554 18.8227 52.5301 18.5707 52.1007 18.272C51.9327 18.16 51.8394 17.9827 51.8207 17.74L51.6527 13.512V13.484C51.6527 13.4093 51.6994 13.372 51.7927 13.372C51.8861 13.3533 51.9421 13.3813 51.9607 13.456C52.5767 14.9867 53.2767 16.2467 54.0607 17.236C54.8634 18.2253 55.8714 18.72 57.0847 18.72C57.9061 18.72 58.5874 18.5053 59.1287 18.076C59.6701 17.628 59.9407 16.8907 59.9407 15.864C59.9407 15.0427 59.7541 14.324 59.3807 13.708C59.0261 13.092 58.5781 12.5787 58.0367 12.168C57.5141 11.7573 56.7954 11.2533 55.8807 10.656C54.9847 10.0773 54.2847 9.592 53.7807 9.2C53.2767 8.78933 52.8474 8.29467 52.4927 7.716C52.1381 7.11867 51.9607 6.428 51.9607 5.644C51.9607 4.67333 52.2314 3.852 52.7727 3.18C53.3141 2.508 54.0141 2.01333 54.8727 1.696C55.7501 1.36 56.6647 1.192 57.6167 1.192C58.2327 1.192 58.8581 1.25733 59.4927 1.388C60.1274 1.5 60.6687 1.64933 61.1167 1.836C61.3967 1.948 61.5367 2.12533 61.5367 2.368L61.5927 6.148C61.5927 6.22267 61.5461 6.26933 61.4527 6.288C61.3781 6.30667 61.3221 6.288 61.2847 6.232C60.9114 5.09333 60.4074 4.06667 59.7727 3.152C59.1567 2.21867 58.2234 1.752 56.9727 1.752C56.1327 1.752 55.4607 2.004 54.9567 2.508C54.4714 2.99333 54.2287 3.64667 54.2287 4.468ZM68.4201 4.468C68.4201 5.15867 68.5881 5.77467 68.9241 6.316C69.2788 6.83867 69.7081 7.296 70.2121 7.688C70.7161 8.06133 71.4068 8.528 72.2841 9.088C73.2361 9.68533 73.9828 10.1987 74.5241 10.628C75.0841 11.0573 75.5601 11.5893 75.9521 12.224C76.3441 12.84 76.5401 13.568 76.5401 14.408C76.5401 15.36 76.2881 16.2093 75.7841 16.956C75.2988 17.7027 74.5988 18.2907 73.6841 18.72C72.7881 19.1307 71.7615 19.336 70.6041 19.336C69.8201 19.336 69.0081 19.2333 68.1681 19.028C67.3468 18.8227 66.7215 18.5707 66.2921 18.272C66.1241 18.16 66.0308 17.9827 66.0121 17.74L65.8441 13.512V13.484C65.8441 13.4093 65.8908 13.372 65.9841 13.372C66.0775 13.3533 66.1335 13.3813 66.1521 13.456C66.7681 14.9867 67.4681 16.2467 68.2521 17.236C69.0548 18.2253 70.0628 18.72 71.2761 18.72C72.0975 18.72 72.7788 18.5053 73.3201 18.076C73.8615 17.628 74.1321 16.8907 74.1321 15.864C74.1321 15.0427 73.9455 14.324 73.5721 13.708C73.2175 13.092 72.7695 12.5787 72.2281 12.168C71.7055 11.7573 70.9868 11.2533 70.0721 10.656C69.1761 10.0773 68.4761 9.592 67.9721 9.2C67.4681 8.78933 67.0388 8.29467 66.6841 7.716C66.3295 7.11867 66.1521 6.428 66.1521 5.644C66.1521 4.67333 66.4228 3.852 66.9641 3.18C67.5055 2.508 68.2055 2.01333 69.0641 1.696C69.9415 1.36 70.8561 1.192 71.8081 1.192C72.4241 1.192 73.0495 1.25733 73.6841 1.388C74.3188 1.5 74.8601 1.64933 75.3081 1.836C75.5881 1.948 75.7281 2.12533 75.7281 2.368L75.7841 6.148C75.7841 6.22267 75.7375 6.26933 75.6441 6.288C75.5695 6.30667 75.5135 6.288 75.4761 6.232C75.1028 5.09333 74.5988 4.06667 73.9641 3.152C73.3481 2.21867 72.4148 1.752 71.1641 1.752C70.3241 1.752 69.6521 2.004 69.1481 2.508C68.6628 2.99333 68.4201 3.64667 68.4201 4.468ZM99.646 19C99.198 19 98.3674 18.216 97.154 16.648C95.9594 15.08 94.5034 12.896 92.786 10.096L95.026 9.424C96.594 11.7573 97.9007 13.5867 98.946 14.912C100.01 16.2187 100.953 17.1707 101.774 17.768C102.595 18.3653 103.389 18.664 104.154 18.664C104.191 18.664 104.21 18.72 104.21 18.832C104.21 18.944 104.191 19 104.154 19H99.646ZM93.29 1.416C94.8954 1.416 96.146 1.74267 97.042 2.396C97.938 3.03067 98.386 3.908 98.386 5.028C98.386 6.07333 98.0874 7.016 97.49 7.856C96.8927 8.696 96.0994 9.35867 95.11 9.844C94.1394 10.3107 93.1127 10.544 92.03 10.544C91.638 10.544 91.162 10.5253 90.602 10.488V16.732C90.602 17.3107 90.6487 17.7307 90.742 17.992C90.8354 18.2533 91.022 18.4307 91.302 18.524C91.6007 18.6173 92.0767 18.664 92.73 18.664C92.7674 18.664 92.786 18.72 92.786 18.832C92.786 18.944 92.7674 19 92.73 19C92.114 19 91.6287 18.9907 91.274 18.972L89.23 18.944L87.214 18.972C86.8594 18.9907 86.374 19 85.758 19C85.702 19 85.674 18.944 85.674 18.832C85.674 18.72 85.702 18.664 85.758 18.664C86.3927 18.664 86.85 18.6173 87.13 18.524C87.4287 18.4307 87.634 18.2533 87.746 17.992C87.858 17.712 87.914 17.292 87.914 16.732V3.768C87.914 3.208 87.858 2.79733 87.746 2.536C87.6527 2.27467 87.4567 2.09733 87.158 2.004C86.8594 1.892 86.402 1.836 85.786 1.836C85.7487 1.836 85.73 1.78 85.73 1.668C85.73 1.556 85.7487 1.5 85.786 1.5L87.242 1.528C88.0634 1.56533 88.726 1.584 89.23 1.584C89.846 1.584 90.518 1.556 91.246 1.5C91.4887 1.48133 91.778 1.46267 92.114 1.444C92.4687 1.42533 92.8607 1.416 93.29 1.416ZM95.614 6.008C95.614 4.496 95.3527 3.44133 94.83 2.844C94.326 2.24667 93.5887 1.948 92.618 1.948C91.8714 1.948 91.3487 2.088 91.05 2.368C90.7514 2.62933 90.602 3.11467 90.602 3.824V9.732C91.05 9.80667 91.5914 9.844 92.226 9.844C93.4394 9.844 94.3074 9.54533 94.83 8.948C95.3527 8.332 95.614 7.352 95.614 6.008ZM105.063 19C105.007 19 104.979 18.944 104.979 18.832C104.979 18.72 105.007 18.664 105.063 18.664C105.697 18.664 106.155 18.6173 106.435 18.524C106.733 18.4307 106.929 18.2533 107.023 17.992C107.135 17.712 107.191 17.292 107.191 16.732V3.768C107.191 3.208 107.135 2.79733 107.023 2.536C106.929 2.27467 106.733 2.09733 106.435 2.004C106.136 1.892 105.679 1.836 105.063 1.836C105.007 1.836 104.979 1.78 104.979 1.668C104.979 1.556 105.007 1.5 105.063 1.5H116.711C116.897 1.5 116.991 1.584 116.991 1.752L117.047 5.392C117.047 5.42933 116.991 5.45733 116.879 5.476C116.785 5.476 116.729 5.448 116.711 5.392C116.263 3.28267 114.975 2.228 112.847 2.228H111.699C111.008 2.228 110.523 2.34933 110.243 2.592C109.981 2.83467 109.851 3.24533 109.851 3.824V16.62C109.851 17.236 109.963 17.6653 110.187 17.908C110.429 18.1507 110.849 18.272 111.447 18.272H112.819C115.32 18.272 116.907 17.068 117.579 14.66C117.579 14.6227 117.625 14.604 117.719 14.604C117.849 14.604 117.915 14.632 117.915 14.688C117.728 16.1067 117.635 17.404 117.635 18.58C117.635 18.7293 117.607 18.8413 117.551 18.916C117.495 18.972 117.383 19 117.215 19H105.063ZM115.647 12.672C115.647 11.0667 114.601 10.264 112.511 10.264H108.591V9.536H112.539C114.592 9.536 115.619 8.84533 115.619 7.464C115.619 7.408 115.665 7.38 115.759 7.38C115.871 7.38 115.927 7.408 115.927 7.464L115.899 9.9L115.927 11.216C115.964 11.8133 115.983 12.2987 115.983 12.672C115.983 12.7093 115.927 12.728 115.815 12.728C115.703 12.728 115.647 12.7093 115.647 12.672ZM123.791 4.468C123.791 5.15867 123.959 5.77467 124.295 6.316C124.65 6.83867 125.079 7.296 125.583 7.688C126.087 8.06133 126.778 8.528 127.655 9.088C128.607 9.68533 129.354 10.1987 129.895 10.628C130.455 11.0573 130.931 11.5893 131.323 12.224C131.715 12.84 131.911 13.568 131.911 14.408C131.911 15.36 131.659 16.2093 131.155 16.956C130.67 17.7027 129.97 18.2907 129.055 18.72C128.159 19.1307 127.133 19.336 125.975 19.336C125.191 19.336 124.379 19.2333 123.539 19.028C122.718 18.8227 122.093 18.5707 121.663 18.272C121.495 18.16 121.402 17.9827 121.383 17.74L121.215 13.512V13.484C121.215 13.4093 121.262 13.372 121.355 13.372C121.449 13.3533 121.505 13.3813 121.523 13.456C122.139 14.9867 122.839 16.2467 123.623 17.236C124.426 18.2253 125.434 18.72 126.647 18.72C127.469 18.72 128.15 18.5053 128.691 18.076C129.233 17.628 129.503 16.8907 129.503 15.864C129.503 15.0427 129.317 14.324 128.943 13.708C128.589 13.092 128.141 12.5787 127.599 12.168C127.077 11.7573 126.358 11.2533 125.443 10.656C124.547 10.0773 123.847 9.592 123.343 9.2C122.839 8.78933 122.41 8.29467 122.055 7.716C121.701 7.11867 121.523 6.428 121.523 5.644C121.523 4.67333 121.794 3.852 122.335 3.18C122.877 2.508 123.577 2.01333 124.435 1.696C125.313 1.36 126.227 1.192 127.179 1.192C127.795 1.192 128.421 1.25733 129.055 1.388C129.69 1.5 130.231 1.64933 130.679 1.836C130.959 1.948 131.099 2.12533 131.099 2.368L131.155 6.148C131.155 6.22267 131.109 6.26933 131.015 6.288C130.941 6.30667 130.885 6.288 130.847 6.232C130.474 5.09333 129.97 4.06667 129.335 3.152C128.719 2.21867 127.786 1.752 126.535 1.752C125.695 1.752 125.023 2.004 124.519 2.508C124.034 2.99333 123.791 3.64667 123.791 4.468ZM143.639 19.336C141.903 19.336 140.353 18.9347 138.991 18.132C137.647 17.3107 136.601 16.2093 135.855 14.828C135.127 13.428 134.763 11.9067 134.763 10.264C134.763 8.34133 135.248 6.69867 136.219 5.336C137.189 3.95467 138.431 2.91867 139.943 2.228C141.473 1.53733 143.032 1.192 144.619 1.192C146.392 1.192 147.951 1.612 149.295 2.452C150.639 3.27333 151.665 4.36533 152.375 5.728C153.103 7.09067 153.467 8.53733 153.467 10.068C153.467 11.7667 153.019 13.3253 152.123 14.744C151.227 16.1627 150.023 17.2827 148.511 18.104C147.017 18.9253 145.393 19.336 143.639 19.336ZM144.591 18.664C145.711 18.664 146.709 18.3653 147.587 17.768C148.483 17.152 149.183 16.256 149.687 15.08C150.209 13.904 150.471 12.504 150.471 10.88C150.471 9.144 150.181 7.604 149.603 6.26C149.043 4.89733 148.231 3.83333 147.167 3.068C146.121 2.30267 144.889 1.92 143.471 1.92C141.641 1.92 140.232 2.57333 139.243 3.88C138.253 5.168 137.759 6.96 137.759 9.256C137.759 11.048 138.048 12.6627 138.627 14.1C139.205 15.5187 140.017 16.6387 141.063 17.46C142.108 18.2627 143.284 18.664 144.591 18.664ZM169.892 19C169.444 19 168.613 18.216 167.4 16.648C166.205 15.08 164.749 12.896 163.032 10.096L165.272 9.424C166.84 11.7573 168.147 13.5867 169.192 14.912C170.256 16.2187 171.199 17.1707 172.02 17.768C172.841 18.3653 173.635 18.664 174.4 18.664C174.437 18.664 174.456 18.72 174.456 18.832C174.456 18.944 174.437 19 174.4 19H169.892ZM163.536 1.416C165.141 1.416 166.392 1.74267 167.288 2.396C168.184 3.03067 168.632 3.908 168.632 5.028C168.632 6.07333 168.333 7.016 167.736 7.856C167.139 8.696 166.345 9.35867 165.356 9.844C164.385 10.3107 163.359 10.544 162.276 10.544C161.884 10.544 161.408 10.5253 160.848 10.488V16.732C160.848 17.3107 160.895 17.7307 160.988 17.992C161.081 18.2533 161.268 18.4307 161.548 18.524C161.847 18.6173 162.323 18.664 162.976 18.664C163.013 18.664 163.032 18.72 163.032 18.832C163.032 18.944 163.013 19 162.976 19C162.36 19 161.875 18.9907 161.52 18.972L159.476 18.944L157.46 18.972C157.105 18.9907 156.62 19 156.004 19C155.948 19 155.92 18.944 155.92 18.832C155.92 18.72 155.948 18.664 156.004 18.664C156.639 18.664 157.096 18.6173 157.376 18.524C157.675 18.4307 157.88 18.2533 157.992 17.992C158.104 17.712 158.16 17.292 158.16 16.732V3.768C158.16 3.208 158.104 2.79733 157.992 2.536C157.899 2.27467 157.703 2.09733 157.404 2.004C157.105 1.892 156.648 1.836 156.032 1.836C155.995 1.836 155.976 1.78 155.976 1.668C155.976 1.556 155.995 1.5 156.032 1.5L157.488 1.528C158.309 1.56533 158.972 1.584 159.476 1.584C160.092 1.584 160.764 1.556 161.492 1.5C161.735 1.48133 162.024 1.46267 162.36 1.444C162.715 1.42533 163.107 1.416 163.536 1.416ZM165.86 6.008C165.86 4.496 165.599 3.44133 165.076 2.844C164.572 2.24667 163.835 1.948 162.864 1.948C162.117 1.948 161.595 2.088 161.296 2.368C160.997 2.62933 160.848 3.11467 160.848 3.824V9.732C161.296 9.80667 161.837 9.844 162.472 9.844C163.685 9.844 164.553 9.54533 165.076 8.948C165.599 8.332 165.86 7.352 165.86 6.008ZM177.716 2.088C176.577 2.088 175.644 2.44267 174.916 3.152C174.188 3.84267 173.628 4.888 173.236 6.288C173.236 6.344 173.18 6.372 173.068 6.372C172.975 6.35333 172.928 6.32533 172.928 6.288C173.003 5.56 173.087 4.62667 173.18 3.488C173.273 2.33067 173.32 1.46267 173.32 0.884C173.32 0.790666 173.367 0.744 173.46 0.744C173.572 0.744 173.628 0.790666 173.628 0.884C173.628 1.29467 174.151 1.5 175.196 1.5C176.801 1.556 178.677 1.584 180.824 1.584C181.925 1.584 183.092 1.56533 184.324 1.528L186.228 1.5C186.937 1.5 187.451 1.45333 187.768 1.36C188.104 1.26667 188.319 1.08 188.412 0.799999C188.431 0.725332 188.487 0.687999 188.58 0.687999C188.673 0.687999 188.72 0.725332 188.72 0.799999C188.664 1.37867 188.608 2.256 188.552 3.432C188.496 4.608 188.468 5.56 188.468 6.288C188.468 6.32533 188.412 6.344 188.3 6.344C188.207 6.344 188.151 6.32533 188.132 6.288C187.945 4.85067 187.507 3.796 186.816 3.124C186.125 2.43333 185.192 2.088 184.016 2.088C183.493 2.088 183.101 2.13467 182.84 2.228C182.597 2.32133 182.429 2.48933 182.336 2.732C182.243 2.956 182.196 3.32 182.196 3.824V16.732C182.196 17.292 182.252 17.712 182.364 17.992C182.495 18.2533 182.728 18.4307 183.064 18.524C183.4 18.6173 183.932 18.664 184.66 18.664C184.716 18.664 184.744 18.72 184.744 18.832C184.744 18.944 184.716 19 184.66 19C184.007 19 183.493 18.9907 183.12 18.972L180.824 18.944L178.64 18.972C178.248 18.9907 177.707 19 177.016 19C176.979 19 176.96 18.944 176.96 18.832C176.96 18.72 176.979 18.664 177.016 18.664C177.744 18.664 178.276 18.6173 178.612 18.524C178.967 18.4307 179.2 18.2533 179.312 17.992C179.443 17.712 179.508 17.292 179.508 16.732V3.768C179.508 3.28267 179.461 2.928 179.368 2.704C179.275 2.46133 179.107 2.30267 178.864 2.228C178.621 2.13467 178.239 2.088 177.716 2.088Z" fill="white"/>
<path d="M65.0479 39.104L67.8079 32.6H68.9479L65.0479 41.42L61.1479 32.6H62.2879L65.0479 39.104ZM69.9698 32.6H70.9898V41H69.9698V32.6ZM72.9112 32.6H73.9312V40.04H77.2312V41H72.9112V32.6ZM78.3135 32.6H79.3335V40.04H82.6335V41H78.3135V32.6ZM84.8831 38.48L85.2431 37.52H88.9631L89.3231 38.48H84.8831ZM87.0791 34.496L85.6631 37.832L85.5671 38.048L84.3191 41H83.1791L87.0791 32.18L90.9791 41H89.8391L88.6151 38.12L88.5191 37.88L87.0791 34.496ZM96.1627 36.92V35.96H101.923V36.92H96.1627ZM101.239 32.6H102.259V41H101.239V32.6ZM95.5987 32.6H96.6187V41H95.5987V32.6ZM104.777 36.8C104.777 37.272 104.853 37.712 105.005 38.12C105.165 38.52 105.389 38.868 105.677 39.164C105.965 39.46 106.301 39.692 106.685 39.86C107.077 40.02 107.501 40.1 107.957 40.1C108.413 40.1 108.833 40.02 109.217 39.86C109.609 39.692 109.949 39.46 110.237 39.164C110.525 38.868 110.745 38.52 110.897 38.12C111.057 37.712 111.137 37.272 111.137 36.8C111.137 36.328 111.057 35.892 110.897 35.492C110.745 35.084 110.525 34.732 110.237 34.436C109.949 34.14 109.609 33.912 109.217 33.752C108.833 33.584 108.413 33.5 107.957 33.5C107.501 33.5 107.077 33.584 106.685 33.752C106.301 33.912 105.965 34.14 105.677 34.436C105.389 34.732 105.165 35.084 105.005 35.492C104.853 35.892 104.777 36.328 104.777 36.8ZM103.697 36.8C103.697 36.184 103.801 35.616 104.009 35.096C104.225 34.568 104.525 34.112 104.909 33.728C105.293 33.336 105.745 33.032 106.265 32.816C106.785 32.592 107.349 32.48 107.957 32.48C108.573 32.48 109.137 32.592 109.649 32.816C110.169 33.032 110.621 33.336 111.005 33.728C111.389 34.112 111.685 34.568 111.893 35.096C112.109 35.616 112.217 36.184 112.217 36.8C112.217 37.408 112.109 37.976 111.893 38.504C111.685 39.032 111.389 39.492 111.005 39.884C110.621 40.268 110.169 40.572 109.649 40.796C109.137 41.012 108.573 41.12 107.957 41.12C107.349 41.12 106.785 41.012 106.265 40.796C105.745 40.572 105.293 40.268 104.909 39.884C104.525 39.492 104.225 39.032 104.009 38.504C103.801 37.976 103.697 37.408 103.697 36.8ZM112.454 33.56V32.6H117.794V33.56H115.634V41H114.614V33.56H112.454ZM119.436 41V40.04H123.672V41H119.436ZM119.436 33.56V32.6H123.672V33.56H119.436ZM119.436 36.92V35.96H123.432V36.92H119.436ZM118.872 32.6H119.892V41H118.872V32.6ZM125.47 32.6H126.49V40.04H129.79V41H125.47V32.6Z" fill="white"/>
</svg>
